<?xml version="1.0" standalone="no"?>
<!DOCTYPE svg PUBLIC "-//W3C//DTD SVG 20010904//EN"
 "http://www.w3.org/TR/2001/REC-SVG-20010904/DTD/svg10.dtd">
<svg version="1.0" xmlns="http://www.w3.org/2000/svg"
 width="640.000000pt" height="640.000000pt" viewBox="0 0 640.000000 640.000000"
 preserveAspectRatio="xMidYMid meet">
<metadata>
Created by potrace 1.11, written by Peter Selinger 2001-2013
</metadata>
<g transform="translate(0.000000,640.000000) scale(0.100000,-0.100000)"
fill="#000000" stroke="none">
<path d="M1140 4954 c-445 -52 -699 -300 -751 -734 -12 -105 -6 -256 16 -361
69 -331 271 -534 590 -594 182 -35 595 -1 741 60 l34 14 0 400 0 401 -285 0
-285 0 0 -85 0 -85 185 0 185 0 -2 -257 -3 -258 -60 -13 c-102 -22 -347 -27
-444 -8 -181 34 -319 133 -391 280 -64 129 -75 186 -75 381 0 132 4 185 18
235 62 229 224 389 442 435 152 32 362 14 528 -45 45 -16 82 -28 83 -27 12 12
71 164 66 168 -14 13 -169 59 -244 74 -79 15 -286 26 -348 19z"/>
<path d="M2170 4101 l0 -831 95 0 95 0 0 345 0 345 173 0 173 0 200 -342 199
-343 113 -3 c61 -1 112 0 112 3 0 4 -99 170 -220 370 -121 200 -220 366 -220
369 0 2 30 18 67 35 185 87 275 245 260 455 -16 215 -118 339 -333 402 -49 14
-114 18 -386 21 l-328 5 0 -831z m673 630 c73 -29 119 -68 149 -129 19 -40 23
-62 23 -147 -1 -121 -25 -186 -88 -240 -78 -67 -126 -78 -359 -83 l-208 -4 0
317 0 317 213 -4 c191 -4 218 -7 270 -27z"/>
<path d="M3610 4100 l0 -830 460 0 460 0 0 85 0 85 -365 0 -365 0 0 310 0 310
345 0 346 0 -3 83 -3 82 -342 3 -343 2 0 265 0 265 365 0 365 0 0 85 0 85
-460 0 -460 0 0 -830z"/>
<path d="M4970 1850 l0 -740 54 0 55 0 12 54 c19 85 21 86 77 34 61 -57 93
-74 179 -94 84 -20 188 -13 270 17 42 16 74 39 119 83 103 104 144 226 144
429 -1 255 -76 414 -234 492 -86 43 -187 55 -288 35 -82 -16 -132 -42 -190
-98 l-48 -46 0 287 0 287 -75 0 -75 0 0 -740z m601 153 c92 -50 136 -145 146
-318 13 -230 -50 -388 -176 -443 -46 -20 -161 -21 -224 -3 -68 20 -131 79
-157 147 -46 124 -48 371 -3 487 46 119 138 171 290 162 56 -3 84 -10 124 -32z"/>
<path d="M452 2488 c3 -7 115 -320 249 -695 l244 -683 80 0 80 0 248 688 c136
378 247 690 247 695 0 4 -38 7 -84 7 l-84 0 -15 -42 c-8 -24 -87 -246 -175
-494 -88 -249 -173 -496 -187 -550 -15 -55 -28 -100 -30 -102 -1 -1 -12 36
-24 84 -17 66 -197 588 -373 1077 -10 27 -11 27 -95 27 -64 0 -84 -3 -81 -12z"/>
<path d="M2051 2154 c-162 -43 -274 -167 -317 -351 -22 -94 -15 -305 14 -383
50 -140 117 -221 226 -276 97 -47 190 -62 299 -46 201 29 336 156 383 359 20
86 20 260 0 346 -42 180 -161 310 -321 352 -73 19 -212 18 -284 -1z m272 -139
c50 -21 114 -80 138 -127 55 -108 64 -335 19 -465 -45 -131 -141 -196 -286
-197 -127 0 -210 49 -265 156 -44 87 -60 243 -38 378 23 146 99 240 216 270
51 12 170 4 216 -15z"/>
<path d="M3233 2155 c-165 -46 -270 -159 -318 -340 -22 -81 -22 -278 -1 -368
21 -90 68 -179 122 -233 124 -125 362 -159 567 -82 26 10 27 13 27 80 0 68 -1
70 -22 63 -252 -78 -403 -53 -488 82 -80 126 -80 420 0 546 74 117 211 154
395 107 44 -11 82 -17 86 -13 3 5 16 33 27 64 l21 57 -27 10 c-78 29 -107 34
-217 38 -86 3 -135 0 -172 -11z"/>
<path d="M4125 2156 c-70 -16 -164 -51 -187 -69 -15 -11 -15 -17 6 -67 13 -30
27 -54 32 -53 5 2 46 16 92 33 188 68 333 48 385 -53 26 -51 44 -196 25 -208
-7 -5 -59 -9 -115 -9 -111 0 -233 -14 -304 -35 -115 -33 -212 -111 -240 -191
-17 -51 -18 -157 0 -217 16 -56 78 -130 132 -157 64 -33 167 -46 260 -32 101
14 154 41 223 109 60 60 56 62 76 -39 l11 -58 60 0 60 0 -3 413 c-3 403 -4
413 -26 469 -28 68 -90 128 -160 153 -65 23 -249 29 -327 11z m353 -633 c-3
-85 -8 -105 -33 -153 -34 -62 -96 -114 -158 -132 -23 -6 -76 -12 -117 -12
-127 -1 -189 47 -198 151 -14 168 105 237 422 242 l88 1 -4 -97z"/>
</g>
</svg>
