<?xml version="1.0" standalone="no"?>
<!DOCTYPE svg PUBLIC "-//W3C//DTD SVG 20010904//EN"
 "http://www.w3.org/TR/2001/REC-SVG-20010904/DTD/svg10.dtd">
<svg version="1.0" xmlns="http://www.w3.org/2000/svg"
 width="640.000000pt" height="640.000000pt" viewBox="0 0 640.000000 640.000000"
 preserveAspectRatio="xMidYMid meet">
<metadata>
Created by potrace 1.11, written by Peter Selinger 2001-2013
</metadata>
<g transform="translate(0.000000,640.000000) scale(0.100000,-0.100000)"
fill="#000000" stroke="none">
<path d="M1074 5941 c-2 -2 -4 -643 -4 -1423 l0 -1418 588 4 c323 2 601 6 617
9 17 3 46 8 65 12 131 22 274 76 370 140 225 149 333 370 325 665 -4 137 -15
189 -65 295 -89 187 -298 322 -554 359 -21 3 -35 25 -17 27 6 1 14 2 19 3 4 1
23 6 42 10 62 15 175 64 226 97 120 81 216 220 239 348 3 14 7 37 10 51 3 14
6 70 6 125 2 235 -81 412 -248 526 -59 41 -191 98 -263 114 -3 0 -21 4 -40 8
-19 4 -46 9 -60 12 -14 3 -41 8 -60 11 -19 3 -46 7 -59 9 -90 15 -1123 29
-1137 16z m1056 -296 c292 -53 408 -133 455 -312 31 -117 7 -313 -49 -401 -72
-113 -213 -177 -434 -198 -36 -4 -208 -7 -382 -8 l-315 0 -2 466 -3 466 348
-3 c191 -2 363 -6 382 -10z m40 -1210 c190 -30 298 -74 384 -155 60 -57 111
-154 122 -235 52 -388 -133 -614 -532 -653 -44 -4 -227 -7 -409 -7 l-330 0 -3
531 -2 531 362 -2 c200 -2 383 -6 408 -10z"/>
<path d="M3563 3400 c-18 -5 -18 -59 -18 -1420 l0 -1415 165 -3 165 -2 0 605
c0 333 2 606 5 606 3 1 265 2 582 3 317 1 580 5 584 9 6 5 9 179 5 269 -1 17
-38 18 -588 20 l-588 3 0 515 0 515 628 3 627 2 0 145 c0 109 -3 145 -12 146
-58 4 -1541 3 -1555 -1z"/>
</g>
</svg>
